<?xml version="1.0" encoding="iso-8859-1"?>
<!-- Uploaded to: SVG Repo, www.svgrepo.com, Generator: SVG Repo Mixer Tools -->
<!DOCTYPE svg PUBLIC "-//W3C//DTD SVG 1.1//EN" "http://www.w3.org/Graphics/SVG/1.1/DTD/svg11.dtd">
<svg fill="#000000" height="800px" width="800px" version="1.1" id="Capa_1" xmlns="http://www.w3.org/2000/svg" xmlns:xlink="http://www.w3.org/1999/xlink" 
	 viewBox="0 0 467.579 467.579" xml:space="preserve">
<path d="M386.428,453.579c-34.253,0-62.119-27.867-62.119-62.12V76.119C324.309,34.146,290.162,0,248.189,0
	c-41.163,0-74.777,32.848-76.059,73.706c-64.9,3.609-116.594,57.543-116.594,123.329v116.11
	c0,68.112,55.414,123.526,123.527,123.526S302.59,381.258,302.59,313.146v-116.11c0-65.741-51.623-119.645-116.46-123.321
	C187.399,40.573,214.742,14,248.189,14c34.253,0,62.12,27.866,62.12,62.119v315.34c0,41.973,34.146,76.12,76.119,76.12h25.615v-14
	H386.428z M179.063,205.489c-7.194,0-13.048-5.854-13.048-13.048v-66.826c0-7.194,5.854-13.048,13.048-13.048
	s13.048,5.854,13.048,13.048v66.826C192.111,199.636,186.257,205.489,179.063,205.489z M172.069,87.738V99.49
	c-11.534,3.091-20.054,13.63-20.054,26.126v66.826c0,12.496,8.52,23.035,20.054,26.126v15.58
	c-38.807-1.71-74.778-17.644-102.223-45.367C73.907,134.534,117.656,91.184,172.069,87.738z M179.063,422.672
	c-60.394,0-109.527-49.134-109.527-109.526V207.651c30.406,26.327,68.719,40.659,109.521,40.659
	c40.799,0,79.116-14.333,109.533-40.663v105.499C288.59,373.538,239.457,422.672,179.063,422.672z M288.281,188.779
	c-27.452,27.717-63.417,43.651-102.212,45.367v-15.582c11.528-3.095,20.042-13.631,20.042-26.123v-66.826
	c0-12.491-8.514-23.027-20.042-26.123V87.738C240.476,91.19,284.219,134.538,288.281,188.779z"/>
</svg>